<?xml version="1.0" encoding="UTF-8" standalone="no"?>
<!DOCTYPE svg PUBLIC "-//W3C//DTD SVG 1.1//EN"
 "http://www.w3.org/Graphics/SVG/1.1/DTD/svg11.dtd">
<!-- Generated by graphviz version 2.30.1 (20201013.1554)
 -->
<!-- Title: %3 Pages: 1 -->
<svg width="636pt" height="360pt"
 viewBox="0.00 0.00 635.87 360.00" xmlns="http://www.w3.org/2000/svg" xmlns:xlink="http://www.w3.org/1999/xlink">
<g id="graph0" class="graph" transform="scale(1 1) rotate(0) translate(4 356)">
<title>%3</title>
<polygon fill="#333333" stroke="#333333" points="-4,5 -4,-356 632.866,-356 632.866,5 -4,5"/>
<text text-anchor="middle" x="313.933" y="-9.2" font-family="Times,serif" font-size="16.00" fill="white">Network Map</text>
<!-- R4 -->
<g id="node1" class="node"><title>R4</title>
<polygon fill="#006699" stroke="#006699" points="456.366,-351.5 379.366,-351.5 379.366,-278.5 456.366,-278.5 456.366,-351.5"/>
<text text-anchor="middle" x="417.866" y="-311.3" font-family="Helvetica,sans-Serif" font-size="14.00" fill="white">R4</text>
</g>
<!-- R3 -->
<g id="node2" class="node"><title>R3</title>
<polygon fill="#006699" stroke="#006699" points="456.366,-225.5 379.366,-225.5 379.366,-152.5 456.366,-152.5 456.366,-225.5"/>
<text text-anchor="middle" x="417.866" y="-185.3" font-family="Helvetica,sans-Serif" font-size="14.00" fill="white">R3</text>
</g>
<!-- R3&#45;&#45;R4 -->
<g id="edge3" class="edge"><title>R3&#45;&#45;R4</title>
<path fill="none" stroke="green" stroke-dasharray="5,2" d="M417.866,-225.533C417.866,-242.137 417.866,-261.857 417.866,-278.461"/>
<text text-anchor="middle" x="467.866" y="-248.3" font-family="Courier,monospace" font-size="14.00" fill="white"> &#160;&#160;&#160;&#160;&#160;&#160;&#160;&#160;&#160;&#160;&#160;</text>
<text text-anchor="middle" x="392.866" y="-267.261" font-family="Courier,monospace" font-size="14.00" fill="white">Eth0/0</text>
<text text-anchor="middle" x="392.866" y="-229.333" font-family="Courier,monospace" font-size="14.00" fill="white">Eth0/1</text>
</g>
<!-- R5 -->
<g id="node4" class="node"><title>R5</title>
<polygon fill="#006699" stroke="#006699" points="579.366,-351.5 502.366,-351.5 502.366,-278.5 579.366,-278.5 579.366,-351.5"/>
<text text-anchor="middle" x="540.866" y="-311.3" font-family="Helvetica,sans-Serif" font-size="14.00" fill="white">R5</text>
</g>
<!-- R3&#45;&#45;R5 -->
<g id="edge4" class="edge"><title>R3&#45;&#45;R5</title>
<path fill="none" stroke="green" stroke-dasharray="5,2" d="M456.184,-202.305C477.373,-210.906 502.623,-224.406 518.866,-244 526.915,-253.709 532.029,-266.377 535.274,-278.264"/>
<text text-anchor="middle" x="577.866" y="-248.3" font-family="Courier,monospace" font-size="14.00" fill="white"> &#160;&#160;&#160;&#160;&#160;&#160;&#160;&#160;&#160;&#160;&#160;</text>
<text text-anchor="middle" x="510.274" y="-267.064" font-family="Courier,monospace" font-size="14.00" fill="white">Eth0/0</text>
<text text-anchor="middle" x="481.184" y="-191.105" font-family="Courier,monospace" font-size="14.00" fill="white">Eth0/2</text>
</g>
<!-- R2 -->
<g id="node3" class="node"><title>R2</title>
<polygon fill="#006699" stroke="#006699" points="333.366,-225.5 256.366,-225.5 256.366,-152.5 333.366,-152.5 333.366,-225.5"/>
<text text-anchor="middle" x="294.866" y="-185.3" font-family="Helvetica,sans-Serif" font-size="14.00" fill="white">R2</text>
</g>
<!-- SW2 -->
<g id="node6" class="node"><title>SW2</title>
<polygon fill="#006699" stroke="#006699" points="340.366,-351.5 249.366,-351.5 249.366,-278.5 340.366,-278.5 340.366,-351.5"/>
<text text-anchor="middle" x="294.866" y="-311.3" font-family="Helvetica,sans-Serif" font-size="14.00" fill="white">SW2</text>
</g>
<!-- R2&#45;&#45;SW2 -->
<g id="edge2" class="edge"><title>R2&#45;&#45;SW2</title>
<path fill="none" stroke="green" stroke-dasharray="5,2" d="M294.866,-225.533C294.866,-242.137 294.866,-261.857 294.866,-278.461"/>
<text text-anchor="middle" x="344.866" y="-248.3" font-family="Courier,monospace" font-size="14.00" fill="white"> &#160;&#160;&#160;&#160;&#160;&#160;&#160;&#160;&#160;&#160;&#160;</text>
<text text-anchor="middle" x="265.866" y="-267.261" font-family="Courier,monospace" font-size="14.00" fill="white">Eth0/11</text>
<text text-anchor="middle" x="269.866" y="-229.333" font-family="Courier,monospace" font-size="14.00" fill="white">Eth0/1</text>
</g>
<!-- R1 -->
<g id="node5" class="node"><title>R1</title>
<polygon fill="#006699" stroke="#006699" points="210.366,-225.5 133.366,-225.5 133.366,-152.5 210.366,-152.5 210.366,-225.5"/>
<text text-anchor="middle" x="171.866" y="-185.3" font-family="Helvetica,sans-Serif" font-size="14.00" fill="white">R1</text>
</g>
<!-- R6 -->
<g id="node7" class="node"><title>R6</title>
<polygon fill="#006699" stroke="#006699" points="87.3663,-225.5 10.3663,-225.5 10.3663,-152.5 87.3663,-152.5 87.3663,-225.5"/>
<text text-anchor="middle" x="48.8663" y="-185.3" font-family="Helvetica,sans-Serif" font-size="14.00" fill="white">R6</text>
</g>
<!-- SW1 -->
<g id="node8" class="node"><title>SW1</title>
<polygon fill="#006699" stroke="#006699" points="278.366,-99.5 187.366,-99.5 187.366,-26.5 278.366,-26.5 278.366,-99.5"/>
<text text-anchor="middle" x="232.866" y="-59.3" font-family="Helvetica,sans-Serif" font-size="14.00" fill="white">SW1</text>
</g>
<!-- SW1&#45;&#45;R6 -->
<g id="edge1" class="edge"><title>SW1&#45;&#45;R6</title>
<path fill="none" stroke="green" stroke-dasharray="5,2" d="M187.423,-66.5494C149.317,-71.163 96.2399,-83.7953 64.8663,-118 56.3555,-127.279 52.0698,-140.132 50,-152.295"/>
<text text-anchor="middle" x="114.866" y="-122.3" font-family="Courier,monospace" font-size="14.00" fill="white"> &#160;&#160;&#160;&#160;&#160;&#160;&#160;&#160;&#160;&#160;&#160;</text>
<text text-anchor="middle" x="25" y="-141.095" font-family="Courier,monospace" font-size="14.00" fill="white">Eth0/1</text>
<text text-anchor="middle" x="162.423" y="-55.3494" font-family="Courier,monospace" font-size="14.00" fill="white">Eth0/5</text>
</g>
<!-- SW1&#45;&#45;R1 -->
<g id="edge5" class="edge"><title>SW1&#45;&#45;R1</title>
<path fill="none" stroke="green" stroke-dasharray="5,2" d="M187.614,-96.7136C181.656,-103.075 176.4,-110.216 172.866,-118 168.094,-128.514 166.725,-140.864 166.892,-152.24"/>
<text text-anchor="middle" x="222.866" y="-122.3" font-family="Courier,monospace" font-size="14.00" fill="white"> &#160;&#160;&#160;&#160;&#160;&#160;&#160;&#160;&#160;&#160;&#160;</text>
<text text-anchor="middle" x="141.892" y="-141.04" font-family="Courier,monospace" font-size="14.00" fill="white">Eth0/0</text>
<text text-anchor="middle" x="162.614" y="-85.5136" font-family="Courier,monospace" font-size="14.00" fill="white">Eth0/1</text>
</g>
<!-- SW1&#45;&#45;R2 -->
<g id="edge6" class="edge"><title>SW1&#45;&#45;R2</title>
<path fill="none" stroke="green" stroke-dasharray="5,2" d="M261.718,-99.522C265.805,-105.482 269.69,-111.762 272.866,-118 278.3,-128.671 282.71,-140.943 286.115,-152.202"/>
<text text-anchor="middle" x="328.866" y="-122.3" font-family="Courier,monospace" font-size="14.00" fill="white"> &#160;&#160;&#160;&#160;&#160;&#160;&#160;&#160;&#160;&#160;&#160;</text>
<text text-anchor="middle" x="261.115" y="-141.002" font-family="Courier,monospace" font-size="14.00" fill="white">Eth0/0</text>
<text text-anchor="middle" x="236.718" y="-103.322" font-family="Courier,monospace" font-size="14.00" fill="white">Eth0/2</text>
</g>
<!-- SW1&#45;&#45;R3 -->
<g id="edge7" class="edge"><title>SW1&#45;&#45;R3</title>
<path fill="none" stroke="green" stroke-dasharray="5,2" d="M278.131,-71.0593C310.546,-78.1378 353.484,-91.8974 382.866,-118 393.227,-127.204 400.888,-140.187 406.356,-152.475"/>
<text text-anchor="middle" x="444.866" y="-122.3" font-family="Courier,monospace" font-size="14.00" fill="white"> &#160;&#160;&#160;&#160;&#160;&#160;&#160;&#160;&#160;&#160;&#160;</text>
<text text-anchor="middle" x="381.356" y="-141.275" font-family="Courier,monospace" font-size="14.00" fill="white">Eth0/0</text>
<text text-anchor="middle" x="303.131" y="-59.8593" font-family="Courier,monospace" font-size="14.00" fill="white">Eth0/3</text>
</g>
</g>
</svg>
