<?xml version="1.0" encoding="UTF-8" standalone="no"?>
<!DOCTYPE svg PUBLIC "-//W3C//DTD SVG 1.1//EN"
 "http://www.w3.org/Graphics/SVG/1.1/DTD/svg11.dtd">
<!-- Generated by graphviz version 2.30.1 (20201013.1554)
 -->
<!-- Title: %3 Pages: 1 -->
<svg width="602pt" height="486pt"
 viewBox="0.00 0.00 602.45 486.00" xmlns="http://www.w3.org/2000/svg" xmlns:xlink="http://www.w3.org/1999/xlink">
<g id="graph0" class="graph" transform="scale(1 1) rotate(0) translate(4 482)">
<title>%3</title>
<polygon fill="#333333" stroke="#333333" points="-4,5 -4,-482 599.452,-482 599.452,5 -4,5"/>
<text text-anchor="middle" x="297.226" y="-9.2" font-family="Times,serif" font-size="16.00" fill="white">Network Map</text>
<!-- SW2 -->
<g id="node1" class="node"><title>SW2</title>
<polygon fill="#006699" stroke="#006699" points="502.952,-225.5 411.952,-225.5 411.952,-152.5 502.952,-152.5 502.952,-225.5"/>
<text text-anchor="middle" x="457.452" y="-185.3" font-family="Helvetica,sans-Serif" font-size="14.00" fill="white">SW2</text>
</g>
<!-- R4 -->
<g id="node2" class="node"><title>R4</title>
<polygon fill="#006699" stroke="#006699" points="309.952,-477.5 232.952,-477.5 232.952,-404.5 309.952,-404.5 309.952,-477.5"/>
<text text-anchor="middle" x="271.452" y="-437.3" font-family="Helvetica,sans-Serif" font-size="14.00" fill="white">R4</text>
</g>
<!-- SW1 -->
<g id="node3" class="node"><title>SW1</title>
<polygon fill="#006699" stroke="#006699" points="317.952,-225.5 226.952,-225.5 226.952,-152.5 317.952,-152.5 317.952,-225.5"/>
<text text-anchor="middle" x="272.452" y="-185.3" font-family="Helvetica,sans-Serif" font-size="14.00" fill="white">SW1</text>
</g>
<!-- R1 -->
<g id="node4" class="node"><title>R1</title>
<polygon fill="#006699" stroke="#006699" points="126.952,-351.5 49.9522,-351.5 49.9522,-278.5 126.952,-278.5 126.952,-351.5"/>
<text text-anchor="middle" x="88.4522" y="-311.3" font-family="Helvetica,sans-Serif" font-size="14.00" fill="white">R1</text>
</g>
<!-- SW1&#45;&#45;R1 -->
<g id="edge1" class="edge"><title>SW1&#45;&#45;R1</title>
<path fill="none" stroke="green" stroke-dasharray="5,2" d="M226.986,-193.373C163.156,-199.16 52.0072,-213.444 27.4522,-244 14.1236,-260.586 30.7582,-278.679 50,-292.314"/>
<text text-anchor="middle" x="77.4522" y="-248.3" font-family="Courier,monospace" font-size="14.00" fill="white"> &#160;&#160;&#160;&#160;&#160;&#160;&#160;&#160;&#160;&#160;&#160;</text>
<text text-anchor="middle" x="25" y="-281.114" font-family="Courier,monospace" font-size="14.00" fill="white">Eth0/0</text>
<text text-anchor="middle" x="201.986" y="-182.173" font-family="Courier,monospace" font-size="14.00" fill="white">Eth0/1</text>
</g>
<!-- R2 -->
<g id="node6" class="node"><title>R2</title>
<polygon fill="#006699" stroke="#006699" points="372.952,-99.5 295.952,-99.5 295.952,-26.5 372.952,-26.5 372.952,-99.5"/>
<text text-anchor="middle" x="334.452" y="-59.3" font-family="Helvetica,sans-Serif" font-size="14.00" fill="white">R2</text>
</g>
<!-- SW1&#45;&#45;R2 -->
<g id="edge2" class="edge"><title>SW1&#45;&#45;R2</title>
<path fill="none" stroke="green" stroke-dasharray="5,2" d="M301.304,-152.478C305.391,-146.518 309.275,-140.238 312.452,-134 317.886,-123.329 322.296,-111.057 325.701,-99.7983"/>
<text text-anchor="middle" x="368.452" y="-122.3" font-family="Courier,monospace" font-size="14.00" fill="white"> &#160;&#160;&#160;&#160;&#160;&#160;&#160;&#160;&#160;&#160;&#160;</text>
<text text-anchor="middle" x="300.701" y="-103.598" font-family="Courier,monospace" font-size="14.00" fill="white">Eth0/0</text>
<text text-anchor="middle" x="276.304" y="-141.278" font-family="Courier,monospace" font-size="14.00" fill="white">Eth0/2</text>
</g>
<!-- R3 -->
<g id="node5" class="node"><title>R3</title>
<polygon fill="#006699" stroke="#006699" points="371.952,-351.5 294.952,-351.5 294.952,-278.5 371.952,-278.5 371.952,-351.5"/>
<text text-anchor="middle" x="333.452" y="-311.3" font-family="Helvetica,sans-Serif" font-size="14.00" fill="white">R3</text>
</g>
<!-- SW1&#45;&#45;R3 -->
<g id="edge3" class="edge"><title>SW1&#45;&#45;R3</title>
<path fill="none" stroke="green" stroke-dasharray="5,2" d="M267.478,-225.76C267.311,-237.136 268.679,-249.486 273.452,-260 278.318,-270.719 286.451,-280.218 295.182,-288.143"/>
<text text-anchor="middle" x="323.452" y="-248.3" font-family="Courier,monospace" font-size="14.00" fill="white"> &#160;&#160;&#160;&#160;&#160;&#160;&#160;&#160;&#160;&#160;&#160;</text>
<text text-anchor="middle" x="270.182" y="-276.943" font-family="Courier,monospace" font-size="14.00" fill="white">Eth0/0</text>
<text text-anchor="middle" x="242.478" y="-229.56" font-family="Courier,monospace" font-size="14.00" fill="white">Eth0/3</text>
</g>
<!-- R6 -->
<g id="node8" class="node"><title>R6</title>
<polygon fill="#006699" stroke="#006699" points="556.952,-351.5 479.952,-351.5 479.952,-278.5 556.952,-278.5 556.952,-351.5"/>
<text text-anchor="middle" x="518.452" y="-311.3" font-family="Helvetica,sans-Serif" font-size="14.00" fill="white">R6</text>
</g>
<!-- SW1&#45;&#45;R6 -->
<g id="edge4" class="edge"><title>SW1&#45;&#45;R6</title>
<path fill="none" stroke="green" stroke-dasharray="5,2" d="M317.808,-202.927C342.976,-209.984 374.878,-218.737 403.452,-226 437.514,-234.658 452.507,-222.688 480.452,-244 491.887,-252.721 500.303,-265.909 506.265,-278.495"/>
<text text-anchor="middle" x="544.452" y="-248.3" font-family="Courier,monospace" font-size="14.00" fill="white"> &#160;&#160;&#160;&#160;&#160;&#160;&#160;&#160;&#160;&#160;&#160;</text>
<text text-anchor="middle" x="481.265" y="-267.295" font-family="Courier,monospace" font-size="14.00" fill="white">Eth0/1</text>
<text text-anchor="middle" x="342.808" y="-206.727" font-family="Courier,monospace" font-size="14.00" fill="white">Eth0/5</text>
</g>
<!-- R1&#45;&#45;SW1 -->
<g id="edge5" class="edge"><title>R1&#45;&#45;SW1</title>
<path fill="none" stroke="green" stroke-dasharray="5,2" d="M123.032,-278.33C135.454,-266.582 149.983,-253.984 164.452,-244 183.863,-230.606 207.071,-218.556 226.989,-209.255"/>
<text text-anchor="middle" x="214.452" y="-248.3" font-family="Courier,monospace" font-size="14.00" fill="white"> &#160;&#160;&#160;&#160;&#160;&#160;&#160;&#160;&#160;&#160;&#160;</text>
<text text-anchor="middle" x="201.989" y="-198.055" font-family="Courier,monospace" font-size="14.00" fill="white">Eth0/1</text>
<text text-anchor="middle" x="98.0319" y="-267.13" font-family="Courier,monospace" font-size="14.00" fill="white">Eth0/0</text>
</g>
<!-- R3&#45;&#45;SW1 -->
<g id="edge8" class="edge"><title>R3&#45;&#45;SW1</title>
<path fill="none" stroke="green" stroke-dasharray="5,2" d="M369.817,-278.223C376.768,-267.193 380.072,-255.046 373.452,-244 361.289,-223.704 338.61,-210.609 317.819,-202.405"/>
<text text-anchor="middle" x="426.452" y="-248.3" font-family="Courier,monospace" font-size="14.00" fill="white"> &#160;&#160;&#160;&#160;&#160;&#160;&#160;&#160;&#160;&#160;&#160;</text>
<text text-anchor="middle" x="342.819" y="-191.205" font-family="Courier,monospace" font-size="14.00" fill="white">Eth0/3</text>
<text text-anchor="middle" x="344.817" y="-267.023" font-family="Courier,monospace" font-size="14.00" fill="white">Eth0/0</text>
</g>
<!-- R3&#45;&#45;R4 -->
<g id="edge9" class="edge"><title>R3&#45;&#45;R4</title>
<path fill="none" stroke="green" stroke-dasharray="5,2" d="M295.004,-338.776C284.412,-347.145 274.249,-357.649 268.452,-370 263.543,-380.461 262.69,-392.798 263.56,-404.177"/>
<text text-anchor="middle" x="318.452" y="-374.3" font-family="Courier,monospace" font-size="14.00" fill="white"> &#160;&#160;&#160;&#160;&#160;&#160;&#160;&#160;&#160;&#160;&#160;</text>
<text text-anchor="middle" x="238.56" y="-392.977" font-family="Courier,monospace" font-size="14.00" fill="white">Eth0/0</text>
<text text-anchor="middle" x="270.004" y="-327.576" font-family="Courier,monospace" font-size="14.00" fill="white">Eth0/1</text>
</g>
<!-- R5 -->
<g id="node7" class="node"><title>R5</title>
<polygon fill="#006699" stroke="#006699" points="432.952,-477.5 355.952,-477.5 355.952,-404.5 432.952,-404.5 432.952,-477.5"/>
<text text-anchor="middle" x="394.452" y="-437.3" font-family="Helvetica,sans-Serif" font-size="14.00" fill="white">R5</text>
</g>
<!-- R3&#45;&#45;R5 -->
<g id="edge10" class="edge"><title>R3&#45;&#45;R5</title>
<path fill="none" stroke="green" stroke-dasharray="5,2" d="M361.558,-351.585C365.545,-357.537 369.341,-363.798 372.452,-370 377.822,-380.703 382.214,-392.984 385.623,-404.241"/>
<text text-anchor="middle" x="428.452" y="-374.3" font-family="Courier,monospace" font-size="14.00" fill="white"> &#160;&#160;&#160;&#160;&#160;&#160;&#160;&#160;&#160;&#160;&#160;</text>
<text text-anchor="middle" x="360.623" y="-393.041" font-family="Courier,monospace" font-size="14.00" fill="white">Eth0/0</text>
<text text-anchor="middle" x="336.558" y="-355.385" font-family="Courier,monospace" font-size="14.00" fill="white">Eth0/2</text>
</g>
<!-- R2&#45;&#45;SW1 -->
<g id="edge6" class="edge"><title>R2&#45;&#45;SW1</title>
<path fill="none" stroke="green" stroke-dasharray="5,2" d="M296.151,-69.085C266.661,-75.2318 227.777,-88.6938 208.452,-118 197.847,-134.084 210.303,-150.088 226.957,-162.725"/>
<text text-anchor="middle" x="258.452" y="-122.3" font-family="Courier,monospace" font-size="14.00" fill="white"> &#160;&#160;&#160;&#160;&#160;&#160;&#160;&#160;&#160;&#160;&#160;</text>
<text text-anchor="middle" x="201.957" y="-151.525" font-family="Courier,monospace" font-size="14.00" fill="white">Eth0/2</text>
<text text-anchor="middle" x="271.151" y="-57.885" font-family="Courier,monospace" font-size="14.00" fill="white">Eth0/0</text>
</g>
<!-- R2&#45;&#45;SW2 -->
<g id="edge7" class="edge"><title>R2&#45;&#45;SW2</title>
<path fill="none" stroke="green" stroke-dasharray="5,2" d="M372.896,-81.5091C389.682,-90.5821 408.643,-102.938 422.452,-118 431.542,-127.915 438.836,-140.63 444.364,-152.496"/>
<text text-anchor="middle" x="483.452" y="-122.3" font-family="Courier,monospace" font-size="14.00" fill="white"> &#160;&#160;&#160;&#160;&#160;&#160;&#160;&#160;&#160;&#160;&#160;</text>
<text text-anchor="middle" x="415.364" y="-141.296" font-family="Courier,monospace" font-size="14.00" fill="white">Eth0/11</text>
<text text-anchor="middle" x="397.896" y="-70.3091" font-family="Courier,monospace" font-size="14.00" fill="white">Eth0/1</text>
</g>
</g>
</svg>
